<?xml version="1.0" encoding="utf-8"?>
<!DOCTYPE svg PUBLIC "-//W3C//DTD SVG 1.1//EN" "http://www.w3.org/Graphics/SVG/1.1/DTD/svg11.dtd" [
	<!ENTITY ns_flows "http://ns.adobe.com/Flows/1.0/">
	<!ENTITY ns_extend "http://ns.adobe.com/Extensibility/1.0/">
	<!ENTITY ns_ai "http://ns.adobe.com/AdobeIllustrator/10.0/">
	<!ENTITY ns_graphs "http://ns.adobe.com/Graphs/1.0/">
]>
<svg version="1.1" id="Laag_1" xmlns:x="&ns_extend;" xmlns:i="&ns_ai;" xmlns:graph="&ns_graphs;"
	 xmlns="http://www.w3.org/2000/svg" xmlns:xlink="http://www.w3.org/1999/xlink" xmlns:a="http://ns.adobe.com/AdobeSVGViewerExtensions/3.0/"
	 x="0px" y="0px" viewBox="0 0 40 40" enable-background="new 0 0 40 40" xml:space="preserve">
<g>
<path fill="#FFFFFF"
	 d="m 9.0419264,2.5000002 c -0.496056,0.053811 -0.971233,0.2834862
	 -1.321597,0.6387676 l -4.581502,4.5594716 c -0.408302,0.4092822
	 -0.643767,0.9857725 -0.638749,1.5638753 l 0,21.4096923 c 7.13e-4,0.57077
	 0.235793,1.137755 0.638749,1.541851 l 4.625542,4.625551 c
	 0.405629,0.416231 0.982697,0.660066 1.563893,0.660791 l 21.4536896,0 c
	 0.57077,-7.05e-4 1.137753,-0.235675 1.541846,-0.638765 1.50686,-1.497898
	 3.176437,-3.184988 4.537435,-4.559471 0.403093,-0.404095
	 0.637991,-0.971082 0.638767,-1.541849 l 0,-21.4978003 C
	 37.499293,8.6913441 37.264326,8.1243628 36.861233,7.7202655 L
	 32.279746,3.1387678 C 31.875653,2.7356715 31.30867,2.5007783
	 30.7379,2.5000002 l -21.6959736,0 z m 16.7840946,5.8370038 5.836988,0
	 0,5.837007 -5.836988,0 0,5.837004 5.836988,0 0,5.814977 -5.836988,0
	 0,5.837004 -5.81496,0 0,-5.837004 5.81496,0 0,-5.814977 -5.81496,0
	 0,-5.837004 5.81496,0 0,-5.8370069 z" />
</g>
</svg>
